<svg width="30" height="32" viewBox="0 0 30 32" fill="none" xmlns="http://www.w3.org/2000/svg">
<path d="M19.9998 24.3333H28.3332L25.9915 21.9917C25.677 21.6771 25.4276 21.3037 25.2575 20.8928C25.0873 20.4819 24.9998 20.0414 24.9998 19.5967V14.3333C25.0001 12.2649 24.3591 10.2472 23.1652 8.55815C21.9713 6.86906 20.2832 5.59161 18.3332 4.90167V4.33333C18.3332 3.44928 17.982 2.60143 17.3569 1.97631C16.7317 1.35119 15.8839 1 14.9998 1C14.1158 1 13.2679 1.35119 12.6428 1.97631C12.0177 2.60143 11.6665 3.44928 11.6665 4.33333V4.90167C7.78317 6.275 4.99984 9.98 4.99984 14.3333V19.5983C4.99984 20.495 4.64317 21.3567 4.00817 21.9917L1.6665 24.3333H9.99984M19.9998 24.3333V26C19.9998 27.3261 19.4731 28.5979 18.5354 29.5355C17.5977 30.4732 16.3259 31 14.9998 31C13.6738 31 12.402 30.4732 11.4643 29.5355C10.5266 28.5979 9.99984 27.3261 9.99984 26V24.3333M19.9998 24.3333H9.99984" stroke="#011119" stroke-width="2" stroke-linecap="round" stroke-linejoin="round"/>
</svg>
