<svg width="110" height="21" viewBox="0 0 110 21" fill="none" xmlns="http://www.w3.org/2000/svg">
<g clip-path="url(#clip0_1626_10866)">
<path d="M26.2402 4.24878L26.0253 16.2965L34.3334 16.4447L34.3763 14.042L28.877 13.9438L29.0491 4.2989L26.2402 4.24878Z" fill="#161616"/>
<path d="M36.1893 6.20364C36.4552 6.47921 36.825 6.62122 37.265 6.62907C37.7049 6.63692 38.0627 6.50789 38.3551 6.24229C38.6307 5.97639 38.7893 5.62376 38.7972 5.18382C38.8047 4.7608 38.6588 4.40274 38.3929 4.12717C38.1101 3.85131 37.7574 3.69268 37.3175 3.68483C36.8775 3.67698 36.5026 3.82263 36.227 4.08853C35.9345 4.35414 35.7928 4.70706 35.7853 5.13008C35.7774 5.57002 35.9065 5.92778 36.1893 6.20364ZM35.9914 7.80811L35.8368 16.4717L38.3411 16.5163L38.4957 7.85279L35.9914 7.80811Z" fill="#161616"/>
<path d="M39.6377 7.87305L42.495 16.5903L46.1161 16.6549L49.2827 8.04514L46.6599 7.99834L44.4268 14.5767L44.2575 14.5737L42.2774 7.92015L39.6377 7.87305Z" fill="#161616"/>
<path d="M51.8143 16.452C52.535 16.8541 53.3607 17.055 54.2915 17.0716C55.3405 17.0903 56.2582 16.8867 57.0444 16.4607C57.8306 16.0346 58.3664 15.4179 58.651 14.6444L56.5286 14.0648C56.3189 14.4335 56.043 14.7163 55.6841 14.913C55.3078 15.1264 54.9 15.2207 54.4262 15.2122C53.817 15.2013 53.2955 15.0227 52.896 14.6433C52.4963 14.2807 52.2512 13.7854 52.1609 13.1575L58.9631 13.2789C58.9821 13.1608 59.0036 12.9072 59.0106 12.5181C59.0266 11.6213 58.8377 10.8224 58.4609 10.1216C58.0837 9.43787 57.552 8.88673 56.8482 8.48487C56.1442 8.09993 55.3525 7.88269 54.4387 7.86639C53.5081 7.84978 52.6754 8.03804 51.958 8.39762C51.2238 8.7569 50.6557 9.28841 50.2376 9.958C49.8191 10.6445 49.6018 11.4362 49.5861 12.3161C49.5698 13.2297 49.7584 14.0456 50.1519 14.7635C50.5452 15.4814 51.0937 16.0498 51.8143 16.452ZM56.4697 11.6772L52.1717 11.6005C52.2835 11.027 52.5289 10.5575 52.9071 10.2257C53.2855 9.8939 53.7625 9.71622 54.3378 9.72648C54.9132 9.73675 55.3837 9.93134 55.7834 10.2939C56.1662 10.6562 56.395 11.1173 56.4697 11.6772Z" fill="#161616"/>
<path d="M61.2268 16.3829C61.9442 16.9713 62.9546 17.2601 64.2407 17.2831C65.5097 17.3057 66.5126 17.0697 67.2495 16.5581C67.9862 16.0635 68.3714 15.3426 68.388 14.4119C68.3995 13.7689 68.2221 13.2749 67.8904 12.8966C67.5586 12.5183 67.1401 12.2569 66.6352 12.0956C66.1302 11.9342 65.557 11.8055 64.8987 11.7092C64.2907 11.6306 63.8517 11.572 63.5988 11.5167C63.3456 11.4783 63.127 11.3898 62.9265 11.2508C62.7258 11.1118 62.6445 10.9242 62.649 10.6704C62.6544 10.3658 62.7943 10.1144 63.0853 9.93339C63.3594 9.75209 63.7335 9.6572 64.2073 9.66566C64.7149 9.67471 65.1189 9.80041 65.4192 10.0427C65.7196 10.2851 65.8834 10.5927 65.8936 10.9652L68.178 11.006C68.1883 10.4307 68.0284 9.9031 67.6978 9.45712C67.3673 9.01114 66.8999 8.64735 66.2949 8.39958C65.6899 8.15182 64.9984 8.021 64.2369 8.00741C63.0693 7.98658 62.1339 8.24071 61.4138 8.75258C60.6938 9.26445 60.343 9.95217 60.3273 10.8321C60.3149 11.5258 60.4916 12.0537 60.8573 12.4326C61.2229 12.8115 61.6414 13.0728 62.1466 13.2173C62.6518 13.3617 63.2591 13.474 64.0025 13.555C64.6612 13.6345 65.1501 13.7448 65.4695 13.8689C65.7719 13.9929 65.9369 14.2327 65.9306 14.5882C65.9245 14.9265 65.7677 15.1776 65.4768 15.3586C65.1855 15.5565 64.8117 15.6346 64.3379 15.6261C63.7287 15.6152 63.2405 15.4711 62.8903 15.1771C62.5398 14.9 62.3772 14.5248 62.3857 14.0509L60.169 14.0114C60.1511 15.0097 60.4926 15.7944 61.2268 16.3829Z" fill="#161616"/>
<path d="M71.3737 16.5301C71.8712 17.1145 72.56 17.3975 73.4399 17.4132C73.6937 17.4177 73.9817 17.406 74.3041 17.361C74.6096 17.3156 74.8984 17.2531 75.1369 17.1727L75.1689 15.3791C74.8289 15.4577 74.5238 15.4861 74.27 15.4816C73.9147 15.4752 73.6287 15.3686 73.4297 15.1449C73.2305 14.9213 73.1344 14.615 73.141 14.2427L73.2114 10.3001L75.1911 10.3354L75.2238 8.50797L73.244 8.47264L73.3098 5.73176L71.347 5.69674L70.8074 8.42917L69.5214 8.40622L69.4888 10.2337L70.7071 10.2554L70.6349 14.2995C70.6186 15.2133 70.8591 15.9623 71.3737 16.5301Z" fill="#161616"/>
<path d="M78.3683 16.9428C79.0723 17.3276 79.915 17.5288 80.8795 17.546C81.8271 17.563 82.6596 17.3917 83.3938 17.0324C84.1281 16.6731 84.6961 16.1416 85.1146 15.4551C85.533 14.7686 85.7506 13.96 85.7672 13.0294C85.7835 12.1156 85.5949 11.2998 85.2013 10.5988C84.8075 9.89778 84.2588 9.34635 83.5378 8.9611C82.8169 8.57586 81.9914 8.35802 81.0438 8.34111C80.0793 8.3239 79.2296 8.51186 78.5123 8.87144C77.7781 9.23071 77.21 9.76222 76.7915 10.4487C76.3731 11.1353 76.1725 11.9441 76.1562 12.8579C76.1396 13.7885 76.3112 14.6041 76.7048 15.305C77.0986 16.0061 77.6474 16.5575 78.3683 16.9428ZM82.5713 14.7496C82.1229 15.2155 81.5775 15.4258 80.9176 15.414C80.2407 15.402 79.6862 15.172 79.2717 14.6908C78.8399 14.226 78.6474 13.6301 78.6604 12.9025C78.6731 12.1919 78.8867 11.6033 79.3348 11.1542C79.7659 10.7049 80.3286 10.478 81.0054 10.4901C81.6654 10.5018 82.2026 10.7484 82.6344 11.2131C83.0493 11.6775 83.2587 12.2737 83.246 12.9844C83.233 13.712 83.0025 14.3003 82.5713 14.7496Z" fill="#161616"/>
<path d="M87.3642 8.72461L87.2096 17.3882L89.7138 17.4328L89.7929 12.9995C89.8047 12.3396 89.9836 11.8012 90.3296 11.3842C90.6752 10.9841 91.1191 10.772 91.6774 10.782C91.8637 10.7853 92.083 10.823 92.3529 10.8786C92.6223 10.9511 92.858 11.0231 93.0932 11.1288L93.1333 8.87833C92.8311 8.73753 92.5111 8.6472 92.1558 8.64086C91.6989 8.63271 91.2735 8.76051 90.8801 8.99046C90.4863 9.23733 90.193 9.55371 89.9996 9.95649L89.8134 9.95317L89.8345 8.76869L87.3642 8.72461Z" fill="#161616"/>
<path d="M94.4522 8.85105L94.2976 17.5146L96.8018 17.5593L96.89 12.6183C96.8997 12.0769 97.0432 11.6224 97.3539 11.2894C97.6475 10.9562 98.0397 10.7939 98.5473 10.8029C99.0212 10.8114 99.3904 10.9872 99.672 11.3308C99.9367 11.674 100.081 12.1167 100.071 12.6751L99.983 17.616L102.504 17.661L102.592 12.7201C102.602 12.1786 102.762 11.7414 103.073 11.4084C103.383 11.0754 103.793 10.8965 104.284 10.9053C104.757 10.9307 105.143 11.1237 105.441 11.4676C105.74 11.8115 105.884 12.2541 105.875 12.7787L105.787 17.7196L108.291 17.7643L108.387 12.4003C108.399 11.7235 108.258 11.0947 107.997 10.5484C107.719 10.0018 107.337 9.58874 106.852 9.27541C106.349 8.96178 105.794 8.79952 105.168 8.78835C104.559 8.77749 104.014 8.92011 103.535 9.19931C103.056 9.47851 102.694 9.86136 102.414 10.3642L102.245 10.3611C102.017 9.8662 101.669 9.47068 101.183 9.15735C100.698 8.84401 100.176 8.68237 99.6178 8.6724C99.0764 8.66274 98.583 8.80628 98.1382 9.06916C97.6931 9.34897 97.3311 9.71489 97.0858 10.1844L96.9166 10.1814L96.9396 8.89543L94.4522 8.85105Z" fill="#161616"/>
<path d="M19.1996 9.77336C19.1549 12.2803 19.1869 15.2013 17.2874 17.0404C15.3881 18.8793 12.4687 18.732 9.96177 18.6873C7.4548 18.6425 4.53379 18.6745 2.6948 16.7752C0.855796 14.8759 1.00312 11.9565 1.04785 9.44949C1.09258 6.94253 1.06216 4.02154 2.96152 2.18254C4.86086 0.34354 7.78026 0.490861 10.2856 0.535563C12.791 0.580264 15.7136 0.549876 17.5526 2.44923C19.3915 4.34858 19.2443 7.26798 19.1996 9.77336Z" fill="#161616"/>
<path d="M11.2316 4.88531L5.42589 4.78173C4.91238 4.77256 4.48867 5.18142 4.4795 5.69494C4.47034 6.20845 4.8792 6.63217 5.39271 6.64133L11.1984 6.74492C11.7119 6.75408 12.1356 6.34522 12.1448 5.8317C12.154 5.31819 11.7451 4.89448 11.2316 4.88531Z" fill="white"/>
<path d="M13.0645 8.7337L7.25891 8.63012C6.74541 8.62095 6.32167 9.02981 6.31251 9.54333C6.30335 10.0568 6.71223 10.4806 7.22573 10.4897L13.0314 10.5933C13.5449 10.6025 13.9686 10.1936 13.9778 9.68009C13.9869 9.16658 13.5781 8.74286 13.0645 8.7337Z" fill="white"/>
<path d="M11.0959 12.5157L9.09191 12.48C8.57839 12.4708 8.15468 12.8797 8.14552 13.3932C8.13636 13.9067 8.54521 14.3304 9.05873 14.3396L11.0627 14.3753C11.5762 14.3845 11.9999 13.9757 12.0091 13.4621C12.0183 12.9487 11.6094 12.5249 11.0959 12.5157Z" fill="white"/>
<path d="M15.9055 5.89877C15.9147 5.38526 15.5057 4.96154 14.9923 4.95238C14.4787 4.94322 14.0551 5.35208 14.0459 5.86559C14.0367 6.37911 14.4456 6.80282 14.9591 6.81198C15.4726 6.82114 15.8963 6.41229 15.9055 5.89877Z" fill="white"/>
</g>
<defs>
<clipPath id="clip0_1626_10866">
<rect width="108" height="18.1562" fill="white" transform="translate(1.20996 0.373535) rotate(1.02218)"/>
</clipPath>
</defs>
</svg>
