<svg width="13" height="8" viewBox="0 0 13 8" fill="none" xmlns="http://www.w3.org/2000/svg">
<path fill-rule="evenodd" clip-rule="evenodd" d="M0.351832 0.7516C0.576865 0.526635 0.882035 0.400256 1.20023 0.400256C1.51843 0.400256 1.8236 0.526635 2.04863 0.7516L6.00023 4.7032L9.95183 0.7516C10.0625 0.636988 10.1949 0.545569 10.3413 0.482678C10.4878 0.419787 10.6452 0.386684 10.8046 0.385299C10.9639 0.383915 11.1219 0.414276 11.2694 0.474613C11.4169 0.534951 11.5508 0.624054 11.6635 0.736726C11.7762 0.849397 11.8653 0.983379 11.9256 1.13085C11.986 1.27833 12.0163 1.43635 12.0149 1.59568C12.0135 1.75502 11.9804 1.91248 11.9176 2.05888C11.8547 2.20529 11.7632 2.3377 11.6486 2.4484L6.84863 7.2484C6.6236 7.47336 6.31843 7.59974 6.00023 7.59974C5.68203 7.59974 5.37686 7.47336 5.15183 7.2484L0.351832 2.4484C0.126867 2.22337 0.000488281 1.9182 0.000488281 1.6C0.000488281 1.2818 0.126867 0.976633 0.351832 0.7516Z" fill="#011119"/>
</svg>
